<svg xmlns="http://www.w3.org/2000/svg" width="256" height="256" viewBox="0 0 256 256">
  <path d="m27.61 58.81 100.7-47.81 100.6 47.12-28.52 128.9-72.16 56.73-72.64-56.29-28-128.6z" fill="#34CC99"/>
  <path d="m129.5 14.15 42.44 65.26 54.87-18.46-26.74 121.1-70.46 58.99 63.68-71.07-14.46-25.24 11.19 8.46 9.06 16.62 10.66-113.9-55.99-29.03-24.25-12.76z" fill="#268E6A"/>
  <path d="m128.3 6.36 105 50.38-29.58 132.2-75.57 61.02-75.79-60.73-29.64-132.7 105.5-50.25zm0.1 8.26-95.06 46.24 23.73 109.2 6.79-17.08 12.49-9.2-19.35 41.4 67.54 52.57 74.36-52.57-18.09-40.8 13.57 9.7 5.16 15.17 23.01-106.7-46.15 4.61-23.16-31.27-24.84-21.34z" fill="#000"/>
  <path d="m124.1 13.71h7.71v66.21h-7.79l0.08-66.21z" fill="#000"/>
  <path d="m132.1 14.29 28.91 14.1 20.4 29.67 31.8-2.76 9.81 1.99-47.23 7.33-43.69-50.33z" fill="#34CC99" stroke="#000" stroke-width="8.077"/>
  <path d="m124.3 170.6h7.71v69.65h-7.79l0.08-69.65z" fill="#000"/>
  <path d="m178.5 170.2-6.33-48.4 17.6 40.31 7.05 24.16-65.55 52.72 50.36-68.95-3.13 0.16z" fill="#268E6A"/>
  <path d="m84.47 121.7-13.57 70.07-13.82-7.5 18.45-40.48 0.68 0.64 8.26-22.73z" fill="#268E6A"/>
  <path d="m94.98 92.02h66.04v66.4h-66.04v-66.4z" fill="#fff" stroke="#000" stroke-width="7.881"/>
  <path d="m102.2 124.2 8.99-13.49 13.84 14.33 38.72-41.95 13.19 13.19-51.67 55.81-23.07-27.89z" fill="#34CC99" stroke="#000" stroke-width="7.881"/>
</svg>
